HIERARCHY
ROOT hip
{
  OFFSET 0 0 0
  CHANNELS 6 Xposition Yposition Zposition Zrotation Yrotation Xrotation
  JOINT abdomen
  {
    OFFSET 0 20.6881 -0.73152
    CHANNELS 3 Zrotation Xrotation Yrotation
    JOINT chest
    {
      OFFSET 0 11.7043 -0.48768
      CHANNELS 3 Zrotation Xrotation Yrotation
      JOINT neck
      {
        OFFSET 0 22.1894 -2.19456
        CHANNELS 3 Zrotation Xrotation Yrotation
        JOINT head
        {
          OFFSET -0.24384 7.07133 1.2192
          CHANNELS 3 Zrotation Xrotation Yrotation
          JOINT leftEye
          {
            OFFSET 4.14528 8.04674 8.04672
            CHANNELS 3 Zrotation Xrotation Yrotation
            End Site
            {
              OFFSET 1 0 0
            }
          }
          JOINT rightEye
          {
            OFFSET -3.6576 8.04674 8.04672
            CHANNELS 3 Zrotation Xrotation Yrotation
            End Site
            {
              OFFSET 1 0 0
            }
          }
        }
      }
      JOINT rCollar
      {
        OFFSET -2.68224 19.2634 -4.8768
        CHANNELS 3 Zrotation Xrotation Yrotation
        JOINT rShldr
        {
          OFFSET -8.77824 -1.95073 1.46304
          CHANNELS 3 Zrotation Xrotation Yrotation
          JOINT rForeArm
          {
            OFFSET -28.1742 -1.7115 0.48768
            CHANNELS 3 Zrotation Xrotation Yrotation
            JOINT rHand
            {
              OFFSET -22.5879 0.773209 7.07136
              CHANNELS 3 Zrotation Xrotation Yrotation
              JOINT rThumb1
              {
                OFFSET -1.2192 -0.487915 3.41376
                CHANNELS 3 Zrotation Xrotation Yrotation
                JOINT rThumb2
                {
                  OFFSET -3.37035 -0.52449 3.41376
                  CHANNELS 3 Zrotation Xrotation Yrotation
                  End Site
                  {
                    OFFSET -1.78271 -1.18214 1.43049
                  }
                }
              }
              JOINT rIndex1
              {
                OFFSET -7.75947 0.938293 5.60832
                CHANNELS 3 Zrotation Xrotation Yrotation
                JOINT rIndex2
                {
                  OFFSET -2.54057 -0.884171 1.56538
                  CHANNELS 3 Zrotation Xrotation Yrotation
                  End Site
                  {
                    OFFSET -1.62519 -0.234802 1.16502
                  }
                }
              }
              JOINT rMid1
              {
                OFFSET -8.24714 1.18213 3.41376
                CHANNELS 3 Zrotation Xrotation Yrotation
                JOINT rMid2
                {
                  OFFSET -3.10165 -0.590103 1.0647
                  CHANNELS 3 Zrotation Xrotation Yrotation
                  End Site
                  {
                    OFFSET -2.48547 -0.328903 0.83742
                  }
                }
              }
              JOINT rRing1
              {
                OFFSET -8.82822 0.546677 1.51678
                CHANNELS 3 Zrotation Xrotation Yrotation
                JOINT rRing2
                {
                  OFFSET -2.60934 -0.819778 -0.0198488
                  CHANNELS 3 Zrotation Xrotation Yrotation
                  End Site
                  {
                    OFFSET -2.33842 -0.294052 0.168128
                  }
                }
              }
              JOINT rPinky1
              {
                OFFSET -8.27202 -0.0477905 -0.4584
                CHANNELS 3 Zrotation Xrotation Yrotation
                JOINT rPinky2
                {
                  OFFSET -1.82734 -0.647385 -0.700984
                  CHANNELS 3 Zrotation Xrotation Yrotation
                  End Site
                  {
                    OFFSET -1.69225 -0.51767 -0.607171
                  }
                }
              }
            }
          }
        }
      }
      JOINT lCollar
      {
        OFFSET 2.68224 19.2634 -4.8768
        CHANNELS 3 Zrotation Xrotation Yrotation
        JOINT lShldr
        {
          OFFSET 8.77824 -1.95073 1.46304
          CHANNELS 3 Zrotation Xrotation Yrotation
          JOINT lForeArm
          {
            OFFSET 28.1742 -1.7115 0.48768
            CHANNELS 3 Zrotation Xrotation Yrotation
            JOINT lHand
            {
              OFFSET 22.5879 0.773209 7.07136
              CHANNELS 3 Zrotation Xrotation Yrotation
              JOINT lThumb1
              {
                OFFSET 1.2192 -0.487915 3.41376
                CHANNELS 3 Zrotation Xrotation Yrotation
                JOINT lThumb2
                {
                  OFFSET 3.37035 -0.52449 3.41376
                  CHANNELS 3 Zrotation Xrotation Yrotation
                  End Site
                  {
                    OFFSET 1.78271 -1.18214 1.43049
                  }
                }
              }
              JOINT lIndex1
              {
                OFFSET 7.75947 0.938293 5.60832
                CHANNELS 3 Zrotation Xrotation Yrotation
                JOINT lIndex2
                {
                  OFFSET 2.54057 -0.884171 1.56538
                  CHANNELS 3 Zrotation Xrotation Yrotation
                  End Site
                  {
                    OFFSET 1.62519 -0.234802 1.16502
                  }
                }
              }
              JOINT lMid1
              {
                OFFSET 8.24714 1.18213 3.41376
                CHANNELS 3 Zrotation Xrotation Yrotation
                JOINT lMid2
                {
                  OFFSET 3.10165 -0.590103 1.0647
                  CHANNELS 3 Zrotation Xrotation Yrotation
                  End Site
                  {
                    OFFSET 2.48547 -0.328903 0.83742
                  }
                }
              }
              JOINT lRing1
              {
                OFFSET 8.82822 0.546677 1.51678
                CHANNELS 3 Zrotation Xrotation Yrotation
                JOINT lRing2
                {
                  OFFSET 2.60934 -0.819778 -0.0198488
                  CHANNELS 3 Zrotation Xrotation Yrotation
                  End Site
                  {
                    OFFSET 2.33842 -0.294052 0.168128
                  }
                }
              }
              JOINT lPinky1
              {
                OFFSET 8.27202 -0.0477905 -0.4584
                CHANNELS 3 Zrotation Xrotation Yrotation
                JOINT lPinky2
                {
                  OFFSET 1.82734 -0.647385 -0.700984
                  CHANNELS 3 Zrotation Xrotation Yrotation
                  End Site
                  {
                    OFFSET 1.69225 -0.51767 -0.607171
                  }
                }
              }
            }
          }
        }
      }
    }
  }
  JOINT rButtock
  {
    OFFSET -8.77824 4.35084 1.2192
    CHANNELS 3 Zrotation Xrotation Yrotation
    JOINT rThigh
    {
      OFFSET 0 -1.70687 -2.19456
      CHANNELS 3 Zrotation Xrotation Yrotation
      JOINT rShin
      {
        OFFSET 0 -36.8199 0.73152
        CHANNELS 3 Zrotation Xrotation Yrotation
        JOINT rFoot
        {
          OFFSET 0.73152 -45.1104 -5.12064
          CHANNELS 3 Zrotation Xrotation Yrotation
          End Site
          {
            OFFSET -1.1221 -3.69964 12.103
          }
        }
      }
    }
  }
  JOINT lButtock
  {
    OFFSET 8.77824 4.35084 1.2192
    CHANNELS 3 Zrotation Xrotation Yrotation
    JOINT lThigh
    {
      OFFSET 0 -1.70687 -2.19456
      CHANNELS 3 Zrotation Xrotation Yrotation
      JOINT lShin
      {
        OFFSET 0 -36.8199 0.73152
        CHANNELS 3 Zrotation Xrotation Yrotation
        JOINT lFoot
        {
          OFFSET -0.73152 -45.1104 -5.12064
          CHANNELS 3 Zrotation Xrotation Yrotation
          End Site
          {
            OFFSET 1.1221 -3.69964 12.103
          }
        }
      }
    }
  }
}
MOTION
Frames:	8
Frame Time:	0.00833333
-4.35406 83.8008 110.428 0.0 0.0 0.0 -2.04814 -0.00112527 -0.0554688 -0.564321 0.0067937 -0.0976939 -2.34358e-14 7.95139e-16 9.93923e-17 -7.03387e-14 9.54166e-15 3.21472e-16 -0.0 0.0 0.0 -0.0 0.0 0.0 -1.173e-14 9.51216e-18 0.0 -2.45398e-13 -2.73329e-16 1.19271e-15 -4.26075e-12 1.28137e-12 5.40694e-14 -4.88866e-11 -1.27491e-12 6.36111e-14 -1.153e-10 1.56961e-14 2.73528e-13 -1.99129e-10 2.54444e-14 4.62771e-13 -1.15298e-10 1.70955e-14 2.57625e-13 7.73091 5.47488 0.417314 -1.15299e-10 1.54058e-14 2.73528e-13 2.90554 0.965183 0.102902 -1.15293e-10 1.5704e-14 2.63986e-13 10.2786 0.731801 0.0259123 -1.15308e-10 1.94809e-14 2.63986e-13 2.22167 -0.733487 -0.20892 -1.17274e-14 9.31803e-18 -9.93923e-17 -2.49722e-13 -1.49089e-16 -1.19271e-15 -4.28063e-12 -1.2756e-12 2.54444e-14 -4.8908e-11 1.28012e-12 8.90555e-14 -1.15383e-10 1.33929e-14 2.51264e-13 -1.99255e-10 2.54444e-14 4.45278e-13 -1.15388e-10 1.39149e-14 2.67167e-13 -7.73091 5.47488 -0.417314 -1.15383e-10 1.33186e-14 2.51264e-13 -2.90554 0.965183 -0.102902 -1.15389e-10 1.32192e-14 2.5524e-13 -10.2786 0.731801 -0.0259123 -1.15374e-10 1.51076e-14 2.51264e-13 -2.22167 -0.733487 0.20892 -2.03217e-16 0.0 -3.88251e-19 -1.04895 -1.92716 0.000317538 -0.00908104 -2.07858 -0.0748928 -0.505792 3.9982 0.139389 2.03217e-16 0.0 3.88251e-19 -2.06474 -7.46952 0.204664 -0.00450114 7.96078 -0.117526 0.539457 -0.498693 -0.0508304
-9.49338 82.379 103.72 -175.264 -79.2921 176.53 -3.67279 3.78909 1.09915 -0.49393 -0.144963 0.125756 -2.49657 5.28017 -1.53739 0.918481 -1.78581 -3.51374 -0.0 0.0 0.0 -0.0 0.0 0.0 9.15843e-15 -9.235e-13 -1.04124e-13 21.1701 6.93421 2.07991 -6.87558 -3.92946 9.72096 0.0345594 -4.12591 -0.574443 4.69384e-10 7.86052e-10 -2.49431e-10 8.1635e-10 1.35662e-09 -4.26032e-10 4.69387e-10 7.86055e-10 -2.49445e-10 7.73091 5.47488 0.417314 4.69384e-10 7.86055e-10 -2.49434e-10 2.90554 0.965183 0.102902 4.69392e-10 7.86054e-10 -2.4944e-10 10.2786 0.731801 0.0259123 4.69379e-10 7.86057e-10 -2.49438e-10 2.22167 -0.733487 -0.20892 9.1447e-15 -9.23495e-13 -1.04235e-13 -17.7526 5.80712 -2.86257 6.71379 -3.7918 -9.55793 -0.0105812 -2.28214 0.319815 -1.48424e-10 1.19586e-10 -6.41627e-11 -2.58206e-10 2.06461e-10 -1.11501e-10 -1.48432e-10 1.19588e-10 -6.41437e-11 -7.73091 5.47488 -0.417314 -1.48424e-10 1.19586e-10 -6.41644e-11 -2.90554 0.965183 -0.102902 -1.4843e-10 1.19585e-10 -6.41621e-11 -10.2786 0.731801 -0.0259123 -1.48415e-10 1.19587e-10 -6.41692e-11 -2.22167 -0.733487 0.20892 -2.03217e-16 0.0 -3.88251e-19 -1.76618 -10.0032 -1.10429 0.00706228 12.344 0.123464 -0.613047 2.73261 -1.87667 2.03217e-16 0.0 3.88251e-19 -1.3364 -9.31335 3.24681 -0.0437878 13.6551 -0.242222 0.394345 -4.06899 -1.4187
-10.0956 82.3325 103.476 -171.974 -79.1239 173.234 -5.56122 7.7974 2.33416 -0.419573 -0.305109 0.360432 -4.8229 10.8557 -3.20486 1.65337 -3.66313 -7.23626 -0.0 0.0 0.0 -0.0 0.0 0.0 3.33989e-14 -1.98976e-12 -2.23875e-13 42.9797 14.2341 4.38969 -12.7137 -7.70675 20.1411 -0.019796 -8.49184 -1.19249 1.11223e-09 1.66753e-09 -5.31196e-10 1.93295e-09 2.87809e-09 -9.07443e-10 1.11223e-09 1.66754e-09 -5.31209e-10 7.73091 5.47488 0.417314 1.11223e-09 1.66754e-09 -5.31202e-10 2.90554 0.965183 0.102902 1.11224e-09 1.66754e-09 -5.31204e-10 10.2786 0.731801 0.0259123 1.11223e-09 1.66754e-09 -5.312e-10 2.22167 -0.733487 -0.20892 3.3367e-14 -1.98974e-12 -2.23999e-13 -35.8917 11.8776 -5.97097 12.4315 -7.42665 -19.7648 0.00601458 -4.69227 0.65929 -1.77779e-10 2.42853e-10 -1.41759e-10 -3.10927e-10 4.19237e-10 -2.46284e-10 -1.77791e-10 2.42858e-10 -1.41737e-10 -7.73091 5.47488 -0.417314 -1.77779e-10 2.42854e-10 -1.41763e-10 -2.90554 0.965183 -0.102902 -1.77785e-10 2.42851e-10 -1.41762e-10 -10.2786 0.731801 -0.0259123 -1.7777e-10 2.42853e-10 -1.41773e-10 -2.22167 -0.733487 0.20892 -2.03217e-16 0.0 -3.88251e-19 -2.89167 -18.5035 -2.33797 -0.0963627 27.6914 0.37049 -0.820621 1.38426 -3.97118 2.03217e-16 0.0 3.88251e-19 -0.349751 -11.241 6.50597 -0.0561215 19.6843 -0.381711 0.0518489 -7.81227 -2.90391
-10.5922 82.299 103.397 -169.667 -78.8263 171.2 -7.38777 11.3513 3.46911 -0.349597 -0.448455 0.572673 -6.61229 15.794 -4.77319 2.10009 -5.27676 -10.5814 -0.0 0.0 0.0 -0.0 0.0 0.0 5.09352e-14 -2.77052e-12 -3.12371e-13 61.915 20.6891 6.6229 -16.7641 -10.4324 29.631 -0.1495 -12.3727 -1.75974 1.63875e-09 2.35812e-09 -7.4884e-10 2.84731e-09 4.06982e-09 -1.27902e-09 1.63876e-09 2.35813e-09 -7.48852e-10 7.73091 5.47488 0.417314 1.63875e-09 2.35813e-09 -7.48849e-10 2.90554 0.965183 0.102902 1.63876e-09 2.35813e-09 -7.48847e-10 10.2786 0.731801 0.0259123 1.63875e-09 2.35813e-09 -7.48843e-10 2.22167 -0.733487 -0.20892 5.08889e-14 -2.7705e-12 -3.12507e-13 -51.4548 17.2433 -8.94891 16.4736 -10.1107 -29.1046 0.0451508 -6.84556 0.965569 -2.14506e-10 3.58731e-10 -1.92991e-10 -3.76108e-10 6.19333e-10 -3.35393e-10 -2.14521e-10 3.58738e-10 -1.92965e-10 -7.73091 5.47488 -0.417314 -2.14507e-10 3.58732e-10 -1.92996e-10 -2.90554 0.965183 -0.102902 -2.14512e-10 3.58728e-10 -1.92997e-10 -10.2786 0.731801 -0.0259123 -2.14497e-10 3.5873e-10 -1.9301e-10 -2.22167 -0.733487 0.20892 -2.03217e-16 0.0 -3.88251e-19 -4.22669 -26.1151 -3.6346 -0.334515 41.1872 0.679707 -1.09434 0.204712 -5.90176 2.03217e-16 0.0 3.88251e-19 0.718383 -12.8741 9.44558 -0.0401962 25.0431 -0.522456 -0.415406 -11.1836 -4.22407
-11.1095 82.2277 103.965 -177.741 -78.9987 179.551 -8.7284 13.7866 4.29572 -0.293026 -0.54982 0.728814 -7.68862 19.1831 -5.94002 2.29416 -6.30892 -12.9438 -0.0 0.0 0.0 -0.0 0.0 0.0 5.17112e-14 -2.83756e-12 -3.22727e-13 74.8294 25.1414 8.29787 -19.0186 -11.8254 36.3475 -0.285948 -15.0458 -2.16505 1.87447e-09 2.57148e-09 -8.06185e-10 3.25608e-09 4.43719e-09 -1.37601e-09 1.87447e-09 2.57149e-09 -8.06194e-10 7.73091 5.47488 0.417314 1.87447e-09 2.57149e-09 -8.06194e-10 2.90554 0.965183 0.102902 1.87448e-09 2.57149e-09 -8.06191e-10 10.2786 0.731801 0.0259123 1.87447e-09 2.57149e-09 -8.06185e-10 2.22167 -0.733487 -0.20892 5.16601e-14 -2.83754e-12 -3.22876e-13 -61.8435 21.0101 -11.2679 18.8155 -11.5911 -35.8764 0.0864415 -8.35757 1.18307 -2.69665e-10 4.56136e-10 -1.78308e-10 -4.72436e-10 7.87728e-10 -3.1032e-10 -2.69681e-10 4.56144e-10 -1.78283e-10 -7.73091 5.47488 -0.417314 -2.69667e-10 4.56137e-10 -1.78315e-10 -2.90554 0.965183 -0.102902 -2.69671e-10 4.56133e-10 -1.78316e-10 -10.2786 0.731801 -0.0259123 -2.69657e-10 4.56135e-10 -1.78331e-10 -2.22167 -0.733487 0.20892 -2.03217e-16 0.0 -3.88251e-19 -5.37458 -31.5381 -4.81277 -0.620611 50.056 0.989093 -1.34879 -0.559536 -7.42433 2.03217e-16 0.0 3.88251e-19 1.55553 -13.8779 11.4932 -0.0122951 28.7264 -0.64092 -0.818621 -13.6508 -5.06639
-11.6911 82.2212 103.891 -178.566 -78.815 180.519 -9.23442 14.6608 4.65912 -0.259951 -0.593344 0.809782 -8.03966 20.425 -6.43585 2.29572 -6.55011 -13.9141 -0.0 0.0 0.0 -0.0 0.0 0.0 2.46987e-14 -1.71882e-12 -2.04418e-13 79.9204 26.8574 8.90166 -19.7915 -12.237 38.9922 -0.346794 -16.0185 -2.31643 1.64307e-09 1.96869e-09 -5.89223e-10 2.85242e-09 3.39439e-09 -1.00279e-09 1.64308e-09 1.96869e-09 -5.8923e-10 7.73091 5.47488 0.417314 1.64307e-09 1.9687e-09 -5.89232e-10 2.90554 0.965183 0.102902 1.64309e-09 1.9687e-09 -5.89229e-10 10.2786 0.731801 0.0259123 1.64308e-09 1.96869e-09 -5.89221e-10 2.22167 -0.733487 -0.20892 2.46593e-14 -1.71881e-12 -2.0458e-13 -65.5822 22.6735 -12.4354 19.7476 -12.189 -38.871 0.106392 -8.97551 1.27264 -3.55703e-10 5.28573e-10 -5.77029e-11 -6.21013e-10 9.13379e-10 -1.01695e-10 -3.55718e-10 5.28579e-10 -5.76807e-11 -7.73091 5.47488 -0.417314 -3.55706e-10 5.28573e-10 -5.77099e-11 -2.90554 0.965183 -0.102902 -3.55709e-10 5.2857e-10 -5.77104e-11 -10.2786 0.731801 -0.0259123 -3.55696e-10 5.28572e-10 -5.77227e-11 -2.22167 -0.733487 0.20892 -2.03217e-16 0.0 -3.88251e-19 -5.87236 -33.9408 -5.61975 -0.733786 52.4744 1.10795 -1.49229 -0.73555 -8.3799 2.03217e-16 0.0 3.88251e-19 1.88855 -14.0788 12.2547 0.00169905 30.0858 -0.712333 -0.960079 -14.8864 -5.19525
-12.2453 82.2173 103.712 -177.32 -78.5655 179.507 -9.10731 14.424 4.67894 -0.243764 -0.595515 0.83689 -7.94894 20.1437 -6.4185 2.2057 -6.24277 -13.8832 -0.0 0.0 0.0 -0.0 0.0 0.0 -2.1957e-14 2.38014e-13 4.87644e-15 79.5698 26.6436 8.6562 -19.7062 -12.1924 38.6929 -0.33394 -15.7784 -2.27933 1.08088e-09 7.8998e-10 -1.78704e-10 1.87342e-09 1.35651e-09 -2.97778e-10 1.08089e-09 7.89983e-10 -1.78709e-10 7.73091 5.47488 0.417314 1.08088e-09 7.89985e-10 -1.78711e-10 2.90554 0.965183 0.102902 1.0809e-09 7.89986e-10 -1.7871e-10 10.2786 0.731801 0.0259123 1.08088e-09 7.89982e-10 -1.787e-10 2.22167 -0.733487 -0.20892 -2.19729e-14 2.38025e-13 4.7025e-15 -64.7391 22.8748 -12.699 19.8826 -12.4043 -39.1301 0.105212 -8.95484 1.26959 -4.63557e-10 5.83133e-10 1.37912e-10 -8.06498e-10 1.00842e-09 2.36911e-10 -4.63568e-10 5.83137e-10 1.37928e-10 -7.73091 5.47488 -0.417314 -4.6356e-10 5.83132e-10 1.37905e-10 -2.90554 0.965183 -0.102902 -4.63562e-10 5.8313e-10 1.37907e-10 -10.2786 0.731801 -0.0259123 -4.63551e-10 5.83132e-10 1.37898e-10 -2.22167 -0.733487 0.20892 -2.03217e-16 0.0 -3.88251e-19 -5.77249 -34.1959 -6.07274 -0.648738 50.285 1.02496 -1.53237 -0.495282 -8.92946 2.03217e-16 0.0 3.88251e-19 1.82407 -13.7208 12.0873 -0.00352329 29.7844 -0.744429 -0.872384 -15.2455 -4.80027
-12.7949 82.1777 103.619 -176.826 -78.4456 179.243 -8.72885 13.755 4.54517 -0.228554 -0.57968 0.837047 -7.72726 19.2703 -6.1902 2.14374 -5.76446 -13.4373 -0.0 0.0 0.0 -0.0 0.0 0.0 -6.95511e-14 2.23159e-12 2.19734e-13 77.0076 25.6802 8.09093 -19.2672 -11.9532 37.192 -0.293587 -15.0736 -2.17042 4.82349e-10 -3.82253e-10 2.29421e-10 8.31675e-10 -6.69662e-10 4.02662e-10 4.82355e-10 -3.82252e-10 2.29418e-10 7.73091 5.47488 0.417314 4.82348e-10 -3.82251e-10 2.29417e-10 2.90554 0.965183 0.102902 4.82361e-10 -3.82249e-10 2.29414e-10 10.2786 0.731801 0.0259123 4.82345e-10 -3.82252e-10 2.29426e-10 2.22167 -0.733487 -0.20892 -6.95441e-14 2.23159e-12 2.19548e-13 -62.1119 22.4744 -12.5675 19.7184 -12.4905 -38.2798 0.0952992 -8.67369 1.22872 -5.72016e-10 6.29113e-10 3.417e-10 -9.92923e-10 1.0886e-09 5.89594e-10 -5.72023e-10 6.29114e-10 3.4171e-10 -7.73091 5.47488 -0.417314 -5.72019e-10 6.29111e-10 3.41693e-10 -2.90554 0.965183 -0.102902 -5.7202e-10 6.2911e-10 3.41697e-10 -10.2786 0.731801 -0.0259123 -5.72011e-10 6.29112e-10 3.41693e-10 -2.22167 -0.733487 0.20892 -2.03217e-16 0.0 -3.88251e-19 -5.39652 -33.5671 -6.33804 -0.508006 46.2117 0.882392 -1.52626 -0.112294 -9.307 2.03217e-16 0.0 3.88251e-19 1.59395 -13.1131 11.5338 -0.0180551 28.7841 -0.758116 -0.689782 -15.2265 -4.19267
